# xmcd
# 
# Track frame offsets:
#     150
#     15261
#     30823
#     46982
#     64732
#     79551
#     93342
#     106082
#     121998
#     134016
#     149250
#     165193
#     183475
#     201372
# 
# Disc length: 2902
# 
# Revision: 1
# Processed by: cddbd v1.5.2PL0 Copyright (c) Steve Scherf et al.
# Submitted via: fre:ac v1.0.27
# 
DISCID=a90b540e
DTITLE=Connor Christian and Southern Gothic - 90 Proof Lullabies
DYEAR=2008
DGENRE=Country-influenced Rock
TTITLE0=Sunday Suit
TTITLE1=Midnight Moon
TTITLE2=It's Alright
TTITLE3=Waiting For Princess
TTITLE4=Chipping Away
TTITLE5=Evangeline
TTITLE6=Let Ya Slide
TTITLE7=Winter
TTITLE8=Time By You
TTITLE9=One Toke Over The Line
TTITLE10=Good Morning Sunshine
TTITLE11=3Times
TTITLE12=Ground Hog
TTITLE13=Meet My Angel
EXTD=
EXTT0=
EXTT1=
EXTT2=
EXTT3=
EXTT4=
EXTT5=
EXTT6=
EXTT7=
EXTT8=
EXTT9=
EXTT10=
EXTT11=
EXTT12=
EXTT13=
PLAYORDER=
